<svg id="layer_1" enable-background="new 0 0 32 32" height="512" viewBox="0 0 32 32" width="512" xmlns="http://www.w3.org/2000/svg"><path d="m19.9521484 13.8426514c1.5959473-1.203186 2.6342773-3.1086426 2.6342773-5.2567139.0000001-3.6318359-2.9545898-6.5859375-6.5864257-6.5859375s-6.5864258 2.9541016-6.5864258 6.5859375c0 2.1480713 1.0383301 4.0535278 2.6342773 5.2567139-4.7900391 1.6469116-8.246582 6.1864014-8.246582 11.5284424 0 2.5527343 2.0761719 4.6289062 4.628418 4.6289062h15.140625c2.5522461 0 4.628418-2.0761719 4.628418-4.6289062 0-5.3420411-3.456543-9.8815308-8.2465821-11.5284424zm3.6181641 14.1573486h-15.140625c-1.4492188 0-2.628418-1.1796875-2.628418-2.6289062 0-5.6230469 4.5751953-10.1982422 10.1987305-10.1982422s10.1987305 4.5751953 10.1987305 10.1982422c0 1.4492187-1.1791993 2.6289062-2.628418 2.6289062zm-12.1567383-19.4140625c0-2.5283203 2.0576172-4.5859375 4.5864258-4.5859375s4.5864258 2.0576172 4.5864258 4.5859375c0 2.5292969-2.0576172 4.5869141-4.5864258 4.5869141s-4.5864258-2.0576172-4.5864258-4.5869141z"/></svg>