<?xml version="1.0" encoding="iso-8859-1"?>
<!-- Generator: Adobe Illustrator 19.0.0, SVG Export Plug-In . SVG Version: 6.00 Build 0)  -->
<svg version="1.1" id="Capa_1" xmlns="http://www.w3.org/2000/svg" xmlns:xlink="http://www.w3.org/1999/xlink" x="0px" y="0px"
	 viewBox="0 0 512 512" style="enable-background:new 0 0 512 512;" xml:space="preserve">
<g>
	<g>
		<path d="M256,110.062c-52.412,0-95.053,42.641-95.053,95.053s42.641,95.053,95.053,95.053s95.053-42.641,95.053-95.053
			S308.413,110.062,256,110.062z M256,260.146c-30.344,0-55.031-24.687-55.031-55.031s24.687-55.031,55.031-55.031
			s55.031,24.687,55.031,55.031S286.344,260.146,256,260.146z"/>
	</g>
</g>
<g>
	<g>
		<path d="M256,0C142.899,0,50.885,92.015,50.885,205.115v5.67c0,57.2,32.794,123.856,97.474,198.113
			c46.888,53.832,93.121,91.368,95.065,92.94L256,512l12.576-10.161c1.945-1.572,48.178-39.108,95.065-92.94
			c64.679-74.258,97.474-140.913,97.474-198.113v-5.67C461.115,92.015,369.101,0,256,0z M421.093,210.786
			c0,96.665-124.551,213.68-165.093,249.202C215.447,424.455,90.907,307.444,90.907,210.786v-5.67
			c0-91.032,74.061-165.093,165.093-165.093s165.093,74.061,165.093,165.093V210.786z"/>
	</g>
</g>
<g>
</g>
<g>
</g>
<g>
</g>
<g>
</g>
<g>
</g>
<g>
</g>
<g>
</g>
<g>
</g>
<g>
</g>
<g>
</g>
<g>
</g>
<g>
</g>
<g>
</g>
<g>
</g>
<g>
</g>
</svg>
