<?xml version="1.0"?>
<svg xmlns="http://www.w3.org/2000/svg" id="Layer_2" data-name="Layer 2" width="512" height="512" viewBox="0 0 24 24"><path d="M21.8,18.4l-1.567-2.089A6.207,6.207,0,0,1,19,12.612V9a7,7,0,0,0-6-6.92V2a1,1,0,0,0-2,0v.08A7,7,0,0,0,5,9v3.612a6.212,6.212,0,0,1-1.232,3.7L2.2,18.4A1,1,0,0,0,3,20H8.142a3.981,3.981,0,0,0,7.716,0H21a1,1,0,0,0,.8-1.6ZM12,21a1.993,1.993,0,0,1-1.722-1h3.444A1.993,1.993,0,0,1,12,21ZM5,18l.368-.49A8.224,8.224,0,0,0,7,12.612V9A5,5,0,0,1,17,9v3.612a8.218,8.218,0,0,0,1.633,4.9L19,18Z"/></svg>
